<svg width="142" height="35" viewBox="0 0 142 35" fill="none" xmlns="http://www.w3.org/2000/svg">
    <path d="M34.002 26V7.67H37.33V15.314H46.768V7.67H50.096V26H46.768V18.096H37.33V26H34.002ZM59.5974 26.26C58.28 26.26 57.136 25.9913 56.1654 25.454C55.1947 24.9167 54.4407 24.154 53.9034 23.166C53.366 22.1607 53.0974 20.982 53.0974 19.63C53.0974 18.278 53.366 17.108 53.9034 16.12C54.4407 15.132 55.1947 14.3693 56.1654 13.832C57.136 13.2947 58.28 13.026 59.5974 13.026C60.9147 13.026 62.0587 13.2947 63.0294 13.832C64 14.3693 64.754 15.132 65.2914 16.12C65.8287 17.108 66.0974 18.278 66.0974 19.63C66.0974 20.982 65.8287 22.1607 65.2914 23.166C64.754 24.154 64 24.9167 63.0294 25.454C62.0587 25.9913 60.9147 26.26 59.5974 26.26ZM59.5974 23.79C60.568 23.79 61.348 23.4433 61.9374 22.75C62.5267 22.0393 62.8214 20.9993 62.8214 19.63C62.8214 18.2433 62.5267 17.212 61.9374 16.536C61.348 15.8427 60.568 15.496 59.5974 15.496C58.6267 15.496 57.8467 15.8427 57.2574 16.536C56.668 17.212 56.3734 18.2433 56.3734 19.63C56.3734 20.9993 56.668 22.0393 57.2574 22.75C57.8467 23.4433 58.6267 23.79 59.5974 23.79ZM73.1998 26.26C71.6918 26.26 70.5738 25.8527 69.8458 25.038C69.1352 24.206 68.7798 22.9927 68.7798 21.398V7.67H72.0298V21.242C72.0298 22.802 72.6885 23.582 74.0058 23.582C74.1965 23.582 74.3872 23.5733 74.5778 23.556C74.7685 23.5387 74.9505 23.504 75.1238 23.452L75.0718 26.026C74.4478 26.182 73.8238 26.26 73.1998 26.26ZM82.7536 26.26C81.4363 26.26 80.2923 25.9913 79.3216 25.454C78.351 24.9167 77.597 24.154 77.0596 23.166C76.5223 22.1607 76.2536 20.982 76.2536 19.63C76.2536 18.278 76.5223 17.108 77.0596 16.12C77.597 15.132 78.351 14.3693 79.3216 13.832C80.2923 13.2947 81.4363 13.026 82.7536 13.026C84.071 13.026 85.215 13.2947 86.1856 13.832C87.1563 14.3693 87.9103 15.132 88.4476 16.12C88.985 17.108 89.2536 18.278 89.2536 19.63C89.2536 20.982 88.985 22.1607 88.4476 23.166C87.9103 24.154 87.1563 24.9167 86.1856 25.454C85.215 25.9913 84.071 26.26 82.7536 26.26ZM82.7536 23.79C83.7243 23.79 84.5043 23.4433 85.0936 22.75C85.683 22.0393 85.9776 20.9993 85.9776 19.63C85.9776 18.2433 85.683 17.212 85.0936 16.536C84.5043 15.8427 83.7243 15.496 82.7536 15.496C81.783 15.496 81.003 15.8427 80.4136 16.536C79.8243 17.212 79.5296 18.2433 79.5296 19.63C79.5296 20.9993 79.8243 22.0393 80.4136 22.75C81.003 23.4433 81.783 23.79 82.7536 23.79ZM92.2481 26V7.67H104.234V10.322H95.5761V15.496H103.688V18.148H95.5761V26H92.2481ZM110.808 26.26C107.688 26.26 106.128 24.5093 106.128 21.008V13.286H109.378V21.06C109.378 21.9613 109.56 22.6287 109.924 23.062C110.288 23.4953 110.868 23.712 111.666 23.712C112.532 23.712 113.243 23.4173 113.798 22.828C114.352 22.2213 114.63 21.424 114.63 20.436V13.286H117.88V26H114.708V24.102C113.858 25.5407 112.558 26.26 110.808 26.26ZM127.528 26.26C126.09 26.26 124.85 25.9913 123.81 25.454C122.77 24.9167 121.964 24.154 121.392 23.166C120.838 22.178 120.56 21.008 120.56 19.656C120.56 18.3387 120.829 17.186 121.366 16.198C121.921 15.21 122.675 14.4387 123.628 13.884C124.599 13.312 125.7 13.026 126.93 13.026C128.733 13.026 130.154 13.598 131.194 14.742C132.252 15.886 132.78 17.446 132.78 19.422V20.384H123.68C123.923 22.6547 125.223 23.79 127.58 23.79C128.291 23.79 129.002 23.686 129.712 23.478C130.423 23.2527 131.073 22.906 131.662 22.438L132.572 24.622C131.966 25.1247 131.203 25.5233 130.284 25.818C129.366 26.1127 128.447 26.26 127.528 26.26ZM127.06 15.236C126.107 15.236 125.336 15.5307 124.746 16.12C124.157 16.7093 123.802 17.5067 123.68 18.512H130.076C130.007 17.4547 129.712 16.6487 129.192 16.094C128.69 15.522 127.979 15.236 127.06 15.236ZM139.774 26.26C138.266 26.26 137.148 25.8527 136.42 25.038C135.709 24.206 135.354 22.9927 135.354 21.398V7.67H138.604V21.242C138.604 22.802 139.263 23.582 140.58 23.582C140.771 23.582 140.961 23.5733 141.152 23.556C141.343 23.5387 141.525 23.504 141.698 23.452L141.646 26.026C141.022 26.182 140.398 26.26 139.774 26.26Z" fill="#313C59"/>
    <g filter="url(#filter0_d_150_12)">
        <path d="M14.5323 3C11.0314 12.2199 -4.88601 13.1205 5.42728 25.4312C1.82546 16.8011 20.5794 15.0867 14.5323 3Z" fill="#21BE98"/>
        <path d="M16.2097 13.9658C14.6849 18.1705 8.36056 20.0235 7.52306 23.595C6.95379 26.7366 8.39419 29.6019 12.5727 31.0004C3.256 24.4924 21.147 22.2768 16.2097 13.9658Z" fill="#21BE98"/>
    </g>
    <defs>
        <filter id="filter0_d_150_12" x="0" y="3" width="19.0889" height="32" filterUnits="userSpaceOnUse" color-interpolation-filters="sRGB">
            <feFlood flood-opacity="0" result="BackgroundImageFix"/>
            <feColorMatrix in="SourceAlpha" type="matrix" values="0 0 0 0 0 0 0 0 0 0 0 0 0 0 0 0 0 0 127 0" result="hardAlpha"/>
            <feOffset dy="2"/>
            <feGaussianBlur stdDeviation="1"/>
            <feColorMatrix type="matrix" values="0 0 0 0 0.0117647 0 0 0 0 0.447059 0 0 0 0 0.419608 0 0 0 0.6 0"/>
            <feBlend mode="normal" in2="BackgroundImageFix" result="effect1_dropShadow_150_12"/>
            <feBlend mode="normal" in="SourceGraphic" in2="effect1_dropShadow_150_12" result="shape"/>
        </filter>
    </defs>
</svg>
